<!-- <svg xmlns="http://www.w3.org/2000/svg" xmlns:xlink="http://www.w3.org/1999/xlink" preserveAspectRatio="xMidYMid" width="35" height="31.5" viewBox="0 0 140 126">
  <defs>
    <style>

      .cls-2 {
        fill: #000000;
      }
    </style>
  </defs>
  <path d="M115.665,86.623 C114.961,102.764 113.814,112.493 124.540,113.418 C135.743,114.384 136.278,103.726 136.278,103.726 C136.278,103.726 140.000,103.726 140.000,103.726 C140.000,103.726 139.252,126.079 118.241,125.960 C108.646,125.905 101.691,119.952 100.777,113.133 C99.753,105.491 103.067,80.067 103.067,80.067 C103.067,80.067 105.358,62.109 105.358,62.109 C105.358,62.109 85.031,62.109 85.031,62.109 C85.031,62.109 83.803,74.539 82.740,88.048 C82.447,91.782 81.924,95.518 81.300,99.027 C81.300,99.027 81.402,98.977 81.402,98.977 C81.368,98.998 81.332,99.018 81.298,99.040 C79.899,106.911 77.993,113.631 77.014,116.553 C74.056,125.390 66.707,127.060 60.982,125.390 C55.102,123.675 54.492,120.259 54.683,116.838 C54.770,115.275 57.378,112.241 60.631,108.101 C60.050,108.245 59.471,108.398 58.886,108.523 C58.886,108.523 60.643,108.086 60.643,108.086 C64.506,103.170 69.277,96.691 71.861,89.189 C74.220,82.340 75.565,71.200 76.127,65.584 C76.094,65.586 76.061,65.587 76.027,65.589 C76.027,65.589 76.128,65.574 76.128,65.574 C76.341,63.446 76.442,62.109 76.442,62.109 C76.442,62.109 68.809,61.135 62.127,62.964 C56.075,64.621 52.011,71.231 50.675,72.656 C49.339,74.081 46.953,72.941 46.953,72.941 C46.953,72.941 52.544,56.351 62.127,52.132 C67.654,49.699 90.470,50.137 90.470,50.137 C90.470,50.137 119.712,50.306 119.712,50.306 C119.712,50.306 120.206,48.831 120.206,48.831 C120.083,49.310 119.924,49.816 119.786,50.307 C119.786,50.307 139.714,50.422 139.714,50.422 C139.714,50.422 139.714,61.539 139.714,61.539 C139.714,61.539 117.669,61.824 117.669,61.824 C117.669,61.824 116.309,71.857 115.665,86.623 ZM81.881,48.712 C77.415,48.712 65.558,48.301 59.264,51.847 C51.332,56.317 44.663,73.796 44.663,73.796 C44.663,73.796 45.539,74.140 46.705,74.431 C41.941,75.132 38.281,79.213 38.281,84.156 C38.281,89.593 42.702,94.000 48.156,94.000 C53.610,94.000 58.031,89.593 58.031,84.156 C58.031,79.623 54.953,75.816 50.770,74.672 C51.046,74.600 51.307,74.504 51.534,74.366 C53.067,73.433 55.109,68.540 60.982,65.530 C66.099,62.906 74.151,64.104 74.151,64.104 C74.151,64.104 74.433,65.790 74.433,65.790 C69.918,66.757 66.531,70.756 66.531,75.547 C66.531,79.194 68.499,82.375 71.428,84.118 C71.428,84.118 71.288,84.058 71.288,84.058 C71.288,84.058 70.475,89.615 66.708,96.030 C63.396,101.669 58.279,107.963 57.620,108.767 C54.389,109.380 51.105,109.724 47.780,109.712 C11.546,109.585 0.131,87.065 0.000,67.819 C-0.140,47.238 9.006,30.040 25.015,17.198 C41.025,4.356 51.965,0.676 65.791,-0.008 C72.801,-0.355 80.163,3.429 83.302,7.972 C87.388,13.886 85.519,20.173 90.556,22.185 C98.352,25.301 102.063,16.450 111.319,19.692 C118.720,22.284 124.452,31.999 120.235,48.712 C120.015,48.712 86.333,48.712 81.881,48.712 ZM13.500,68.312 C13.500,73.680 17.872,78.031 23.266,78.031 C28.659,78.031 33.031,73.680 33.031,68.312 C33.031,62.945 28.659,58.594 23.266,58.594 C17.872,58.594 13.500,62.945 13.500,68.312 ZM33.141,29.656 C27.678,29.656 23.250,34.070 23.250,39.516 C23.250,44.961 27.678,49.375 33.141,49.375 C38.603,49.375 43.031,44.961 43.031,39.516 C43.031,34.070 38.603,29.656 33.141,29.656 ZM85.031,80.922 C85.031,80.922 84.865,81.108 84.865,81.108 C85.936,79.518 86.563,77.606 86.563,75.547 C86.563,73.842 86.132,72.238 85.376,70.834 C85.376,70.834 85.890,71.516 85.890,71.516 C85.890,71.516 86.462,63.819 86.462,63.819 C86.462,63.819 103.354,64.104 103.354,64.104 C103.354,64.104 101.417,82.014 101.417,82.014 C96.284,87.633 90.174,93.115 83.358,97.697 C83.498,96.675 83.934,93.363 84.172,90.044 C84.446,86.216 85.031,80.922 85.031,80.922 Z" id="path-1" class="cls-2" fill-rule="evenodd"/>
</svg> -->

<svg xmlns="http://www.w3.org/2000/svg" preserveAspectRatio="xMidYMid" width="35" height="31.5" viewBox="0 0 140 126">
  <path d="M115.665 86.623c-.704 16.141-1.851 25.87 8.875 26.795 11.203.966 11.738-9.692 11.738-9.692H140s-.748 22.353-21.759 22.234c-9.595-.055-16.55-6.008-17.464-12.827-1.024-7.642 2.29-33.066 2.29-33.066l2.291-17.958H85.031s-1.228 12.43-2.291 25.939c-.293 3.734-.816 7.47-1.44 10.979l.102-.05c-.034.021-.07.041-.104.063-1.399 7.871-3.305 14.591-4.284 17.513-2.958 8.837-10.307 10.507-16.032 8.837-5.88-1.715-6.49-5.131-6.299-8.552.087-1.563 2.695-4.597 5.948-8.737-.581.144-1.16.297-1.745.422l1.757-.437c3.863-4.916 8.634-11.395 11.218-18.897 2.359-6.849 3.704-17.989 4.266-23.605l-.1.005.101-.015c.213-2.128.314-3.465.314-3.465s-7.633-.974-14.315.855c-6.052 1.657-10.116 8.267-11.452 9.692-1.336 1.425-3.722.285-3.722.285s5.591-16.59 15.174-20.809c5.527-2.433 28.343-1.995 28.343-1.995l29.242.169.494-1.475c-.123.479-.282.985-.42 1.476l19.928.115v11.117l-22.045.285s-1.36 10.033-2.004 24.799zM81.881 48.712c-4.466 0-16.323-.411-22.617 3.135-7.932 4.47-14.601 21.949-14.601 21.949s.876.344 2.042.635c-4.764.701-8.424 4.782-8.424 9.725 0 5.437 4.421 9.844 9.875 9.844s9.875-4.407 9.875-9.844c0-4.533-3.078-8.34-7.261-9.484.276-.072.537-.168.764-.306 1.533-.933 3.575-5.826 9.448-8.836 5.117-2.624 13.169-1.426 13.169-1.426l.282 1.686c-4.515.967-7.902 4.966-7.902 9.757 0 3.647 1.968 6.828 4.897 8.571l-.14-.06s-.813 5.557-4.58 11.972c-3.312 5.639-8.429 11.933-9.088 12.737-3.231.613-6.515.957-9.84.945C11.546 109.585.131 87.065 0 67.819-.14 47.238 9.006 30.04 25.015 17.198 41.025 4.356 51.965.676 65.791-.008c7.01-.347 14.372 3.437 17.511 7.98 4.086 5.914 2.217 12.201 7.254 14.213 7.796 3.116 11.507-5.735 20.763-2.493 7.401 2.592 13.133 12.307 8.916 29.02H81.881zM13.5 68.312c0 5.368 4.372 9.719 9.766 9.719 5.393 0 9.765-4.351 9.765-9.719 0-5.367-4.372-9.718-9.765-9.718-5.394 0-9.766 4.351-9.766 9.718zm19.641-38.656c-5.463 0-9.891 4.414-9.891 9.86 0 5.445 4.428 9.859 9.891 9.859 5.462 0 9.89-4.414 9.89-9.859 0-5.446-4.428-9.86-9.89-9.86zm51.89 51.266l-.166.186a9.92 9.92 0 0 0 1.698-5.561 9.91 9.91 0 0 0-1.187-4.713l.514.682.572-7.697 16.892.285-1.937 17.91c-5.133 5.619-11.243 11.101-18.059 15.683.14-1.022.576-4.334.814-7.653.274-3.828.859-9.122.859-9.122z" fill-rule="evenodd"/>
</svg>
