<!-- <?xml version="1.0" encoding="utf-8"?>
Svg Vector Icons : http://www.onlinewebfonts.com/icon
<!DOCTYPE svg PUBLIC "-//W3C//DTD SVG 1.1//EN" "http://www.w3.org/Graphics/SVG/1.1/DTD/svg11.dtd">
<svg version="1.1" xmlns="http://www.w3.org/2000/svg" xmlns:xlink="http://www.w3.org/1999/xlink" x="0px" y="0px" viewBox="0 0 1000 1000" enable-background="new 0 0 1000 1000" xml:space="preserve">
<metadata> Svg Vector Icons : http://www.onlinewebfonts.com/icon </metadata>
<g><path d="M701.8,298v108.8c0,90.1-466.4,90.1-466.4,0V289.2c36.3,19.6,72.5,38.2,108.8,57.8c11.8,6.9,31.4,7.8,45.1,4.9C494.1,333.2,598,315.6,701.8,298L701.8,298z M778.2,252.9V343c-2.9,1-5.9,2.9-6.9,5.9l-1,11.8c0,6.9,5.9,9.8,5.9,14.7l-1,10.8c0,3.9-4.9,7.8-4.9,12.7l-15.7,100.9c5.9,11.8,66.6,12.7,73.5,0l-15.7-100.9c0-5.9-4.9-8.8-4.9-12.7l-1-10.8c0-5.9,6.9-6.9,5.9-14.7l-1-11.8c0-2.9-3.9-4.9-6.9-5.9c0-91.1,0,12.7,0-84.3L986,227.4c4.9-1,5.9-3.9,0-5.9c-87.2-25.5-166.6-49-240-69.6c-65.6-18.6-125.4-36.3-181.3-52.9c-9.8-2.9-16.7-2.9-26.5-2c-72.5,5.9-150.9,12.7-233.2,19.6c-90.1,7.8-186.2,15.7-289,24.5c-8.8,1-6.9,7.8-1,9.8c41.1,21.6,86.2,45.1,135.2,71.5C210,253.9,277.6,289.2,353,329.3c6.9,3.9,20.6,4.9,31.4,2.9c124.4-21.6,247.9-43.1,372.3-64.7c0-3.9-2-6.9-6.9-7.8l-289-47c-25.5-3.9-20.6-22.5-5.9-19.6l313.5,50.9C774.3,243.1,778.2,247,778.2,252.9L778.2,252.9z M528.4,888.8c-6.9-25.5-6.9-51.9,5.9-76.4l-485-155.8c-18.6,24.5-23.5,56.8-2,90.1l489.9,156.8l309.6-136.2c8.8-3.9,6.9-9.8-2.9-12.7l-7.8-2.9L528.4,888.8L528.4,888.8z M545.1,594.8l187.1-82.3l14.7-93.1l-22.5-6.9c-10.8,77.4-200.8,83.3-254.7,83.3c-54.9,0-254.7-5.9-254.7-89.2v-34.3L61.1,440L545.1,594.8L545.1,594.8z M528.4,675.2c-6.9-25.5-6.9-51.9,5.9-76.4L49.3,443c-18.6,24.5-23.5,56.8-2,90.1l489.9,156.8l309.6-136.2c8.8-3.9,6.9-9.8-2.9-12.7L836,538L528.4,675.2L528.4,675.2z M526.5,782c-6.9-25.5-6.9-51.9,5.9-76.4l-485-155.8c-18.6,24.5-23.5,56.8-2,90.1l489.9,156.8l309.6-136.2c8.8-3.9,6.9-9.8-2.9-12.7l-7.8-2.9L526.5,782L526.5,782z"/></g>
</svg> -->

<svg xmlns="http://www.w3.org/2000/svg" viewBox="0 0 1000 1000">
  <path d="M701.8 298v108.8c0 90.1-466.4 90.1-466.4 0V289.2c36.3 19.6 72.5 38.2 108.8 57.8 11.8 6.9 31.4 7.8 45.1 4.9C494.1 333.2 598 315.6 701.8 298zm76.4-45.1V343c-2.9 1-5.9 2.9-6.9 5.9l-1 11.8c0 6.9 5.9 9.8 5.9 14.7l-1 10.8c0 3.9-4.9 7.8-4.9 12.7l-15.7 100.9c5.9 11.8 66.6 12.7 73.5 0l-15.7-100.9c0-5.9-4.9-8.8-4.9-12.7l-1-10.8c0-5.9 6.9-6.9 5.9-14.7l-1-11.8c0-2.9-3.9-4.9-6.9-5.9v-84.3L986 227.4c4.9-1 5.9-3.9 0-5.9-87.2-25.5-166.6-49-240-69.6-65.6-18.6-125.4-36.3-181.3-52.9-9.8-2.9-16.7-2.9-26.5-2-72.5 5.9-150.9 12.7-233.2 19.6-90.1 7.8-186.2 15.7-289 24.5-8.8 1-6.9 7.8-1 9.8 41.1 21.6 86.2 45.1 135.2 71.5C210 253.9 277.6 289.2 353 329.3c6.9 3.9 20.6 4.9 31.4 2.9 124.4-21.6 247.9-43.1 372.3-64.7 0-3.9-2-6.9-6.9-7.8l-289-47c-25.5-3.9-20.6-22.5-5.9-19.6L768.4 244c5.9-.9 9.8 3 9.8 8.9zM528.4 888.8c-6.9-25.5-6.9-51.9 5.9-76.4l-485-155.8c-18.6 24.5-23.5 56.8-2 90.1l489.9 156.8 309.6-136.2c8.8-3.9 6.9-9.8-2.9-12.7l-7.8-2.9-307.7 137.1zm16.7-294l187.1-82.3 14.7-93.1-22.5-6.9c-10.8 77.4-200.8 83.3-254.7 83.3-54.9 0-254.7-5.9-254.7-89.2v-34.3L61.1 440l484 154.8zm-16.7 80.4c-6.9-25.5-6.9-51.9 5.9-76.4L49.3 443c-18.6 24.5-23.5 56.8-2 90.1l489.9 156.8 309.6-136.2c8.8-3.9 6.9-9.8-2.9-12.7l-7.9-3-307.6 137.2zM526.5 782c-6.9-25.5-6.9-51.9 5.9-76.4l-485-155.8c-18.6 24.5-23.5 56.8-2 90.1l489.9 156.8 309.6-136.2c8.8-3.9 6.9-9.8-2.9-12.7l-7.8-2.9L526.5 782z"/>
</svg>
