<!-- <?xml version="1.0" encoding="utf-8"?>
Svg Vector Icons : http://www.onlinewebfonts.com/icon
<!DOCTYPE svg PUBLIC "-//W3C//DTD SVG 1.1//EN" "http://www.w3.org/Graphics/SVG/1.1/DTD/svg11.dtd">
<svg version="1.1" xmlns="http://www.w3.org/2000/svg" xmlns:xlink="http://www.w3.org/1999/xlink" x="0px" y="0px" viewBox="0 0 1000 1000" enable-background="new 0 0 1000 1000" xml:space="preserve">
<metadata> Svg Vector Icons : http://www.onlinewebfonts.com/icon </metadata>
<g><path d="M880.1,388.3c-12.7-27.6-27.8-49.7-45.1-66.4c-17.3-16.6-36.5-28.7-57.3-36.1c-20.9-7.4-43.2-11.5-66.9-12.2c-23.7-0.7-48,1.1-72.7,5.3c-9.9,1.4-19.8,4.2-29.7,8.5l-29.7,12.7c-9.9,4.2-20.2,8-30.8,11.1c-10.6,3.2-21.2,4.8-31.9,4.8c-21.2,0-40.2-4.4-56.8-13.3c-16.6-8.8-32.4-16.1-47.3-21.8c-38.2-12.7-78-16.3-119.5-10.6c-41.4,5.7-80.2,23-116.3,52c-34.7,27.6-58.4,61.4-71.1,101.4c-12.7,40-16.6,83.4-11.7,130.1c5,46.7,17.3,95.2,37.2,145.5c19.8,50.3,45,99.1,75.4,146.5c24.1,37.5,44.2,66.7,60.5,87.6c16.3,20.9,33.1,35.8,50.4,44.6c17.3,8.9,37.3,12.7,60,11.7c22.7-1.1,52-4.8,88.1-11.2c21.9-3.5,41.9-4.4,60-2.7c18.1,1.8,34.9,4.1,50.4,6.9c15.6,2.8,30.3,5,44.1,6.4c13.8,1.4,27.6,0.4,41.4-3.2c13.8-3.5,28-11.1,42.5-22.8c14.5-11.7,30.3-29.2,47.3-52.6c27.6-38.9,53.6-79.8,78-122.6c24.4-42.8,43.7-86.5,57.9-131.1c14.2-44.6,21.6-89.6,22.3-134.9C909.5,476.8,899.9,432.2,880.1,388.3L880.1,388.3z"/><path d="M567.7,132c67.1-25.7,195.4-29.8,195.4-29.8c-68.7,13.6-157.9,42.6-205.8,98.2c29.1,15.1,62.4,40.7,147.6,28.3c85.3-12.3,187.4-124.8,187.4-124.8S734.6-4.2,648.9,29.1c-56.8,22.1-90.4,78-106.6,113.3C549.7,139.1,558.2,135.6,567.7,132L567.7,132z"/><path d="M548.2,120.5L548.2,120.5L548.2,120.5L548.2,120.5z"/><path d="M504.7,266.9c7-1.6,13.9-3.1,20.8-4.5c-21-69.7-28.8-158.3,47.9-209.8L510.8,10c-99,66.6-68.5,163.8-34.8,250.8C485.4,262.6,495,264.6,504.7,266.9L504.7,266.9z"/></g>
</svg> -->

<svg xmlns="http://www.w3.org/2000/svg" viewBox="0 0 1000 1000">
  <path d="M880.1 388.3c-12.7-27.6-27.8-49.7-45.1-66.4-17.3-16.6-36.5-28.7-57.3-36.1-20.9-7.4-43.2-11.5-66.9-12.2-23.7-.7-48 1.1-72.7 5.3-9.9 1.4-19.8 4.2-29.7 8.5l-29.7 12.7c-9.9 4.2-20.2 8-30.8 11.1-10.6 3.2-21.2 4.8-31.9 4.8-21.2 0-40.2-4.4-56.8-13.3-16.6-8.8-32.4-16.1-47.3-21.8-38.2-12.7-78-16.3-119.5-10.6-41.4 5.7-80.2 23-116.3 52-34.7 27.6-58.4 61.4-71.1 101.4-12.7 40-16.6 83.4-11.7 130.1 5 46.7 17.3 95.2 37.2 145.5 19.8 50.3 45 99.1 75.4 146.5 24.1 37.5 44.2 66.7 60.5 87.6 16.3 20.9 33.1 35.8 50.4 44.6 17.3 8.9 37.3 12.7 60 11.7 22.7-1.1 52-4.8 88.1-11.2 21.9-3.5 41.9-4.4 60-2.7 18.1 1.8 34.9 4.1 50.4 6.9 15.6 2.8 30.3 5 44.1 6.4 13.8 1.4 27.6.4 41.4-3.2 13.8-3.5 28-11.1 42.5-22.8 14.5-11.7 30.3-29.2 47.3-52.6 27.6-38.9 53.6-79.8 78-122.6s43.7-86.5 57.9-131.1c14.2-44.6 21.6-89.6 22.3-134.9.7-45.1-8.9-89.7-28.7-133.6zM567.7 132c67.1-25.7 195.4-29.8 195.4-29.8-68.7 13.6-157.9 42.6-205.8 98.2 29.1 15.1 62.4 40.7 147.6 28.3 85.3-12.3 187.4-124.8 187.4-124.8S734.6-4.2 648.9 29.1c-56.8 22.1-90.4 78-106.6 113.3 7.4-3.3 15.9-6.8 25.4-10.4zM548.2 120.5z"/>
  <path d="M504.7 266.9c7-1.6 13.9-3.1 20.8-4.5-21-69.7-28.8-158.3 47.9-209.8L510.8 10c-99 66.6-68.5 163.8-34.8 250.8 9.4 1.8 19 3.8 28.7 6.1z"/>
</svg>
