<!-- <svg xmlns="http://www.w3.org/2000/svg" xmlns:xlink="http://www.w3.org/1999/xlink" preserveAspectRatio="xMidYMid" width="489" height="442" viewBox="0 0 489 442">
  <defs>
    <style>

      .cls-2 {
        fill: #000000;
      }
    </style>
  </defs>
  <path d="M404.000,304.000 C401.541,360.625 397.536,394.756 435.000,398.000 C474.132,401.389 476.000,364.000 476.000,364.000 C476.000,364.000 489.000,364.000 489.000,364.000 C489.000,364.000 486.386,442.418 413.000,442.000 C379.484,441.809 355.193,420.922 352.000,397.000 C348.422,370.193 360.000,281.000 360.000,281.000 C360.000,281.000 368.000,218.000 368.000,218.000 C368.000,218.000 297.000,218.000 297.000,218.000 C297.000,218.000 292.711,261.608 289.000,309.000 C287.974,322.095 286.150,335.204 283.973,347.513 C283.973,347.513 284.552,347.224 284.552,347.224 C284.356,347.349 284.156,347.470 283.959,347.595 C279.074,375.196 272.416,398.751 269.000,409.000 C258.667,440.000 232.998,445.858 213.000,440.000 C192.464,433.984 190.333,422.000 191.000,410.000 C191.304,404.522 200.374,393.931 211.718,379.434 C209.604,379.957 207.485,380.458 205.355,380.911 C205.355,380.911 211.828,379.293 211.828,379.293 C225.314,362.050 241.980,339.301 251.000,313.000 C259.238,288.980 263.937,249.903 265.901,230.193 C265.799,230.197 265.695,230.196 265.593,230.201 C265.593,230.201 265.905,230.156 265.905,230.156 C266.649,222.684 267.000,218.000 267.000,218.000 C267.000,218.000 240.341,214.581 217.000,221.000 C195.863,226.813 181.667,250.000 177.000,255.000 C172.333,260.000 164.000,256.000 164.000,256.000 C164.000,256.000 183.530,197.799 217.000,183.000 C236.305,174.464 316.000,176.000 316.000,176.000 C316.000,176.000 418.135,176.594 418.135,176.594 C418.135,176.594 419.961,171.118 419.961,171.118 C419.507,172.920 419.018,174.747 418.497,176.596 C418.497,176.596 488.000,177.000 488.000,177.000 C488.000,177.000 488.000,216.000 488.000,216.000 C488.000,216.000 411.000,217.000 411.000,217.000 C411.000,217.000 406.249,252.196 404.000,304.000 ZM286.000,171.000 C270.400,171.000 228.984,169.559 207.000,182.000 C179.294,197.679 156.000,259.000 156.000,259.000 C156.000,259.000 158.964,260.171 162.944,261.180 C146.378,263.715 133.688,278.038 133.688,295.328 C133.688,314.408 149.141,329.875 168.203,329.875 C187.266,329.875 202.719,314.408 202.719,295.328 C202.719,279.467 192.036,266.112 177.482,262.054 C178.396,261.803 179.246,261.461 180.000,261.000 C185.356,257.726 192.489,240.561 213.000,230.000 C230.873,220.797 259.000,225.000 259.000,225.000 C259.000,225.000 259.990,230.942 259.990,230.942 C244.226,234.331 232.406,248.359 232.406,265.156 C232.406,277.874 239.181,289.005 249.313,295.134 C249.313,295.134 249.000,295.000 249.000,295.000 C249.000,295.000 246.158,314.495 233.000,337.000 C221.341,356.942 203.270,379.222 201.201,381.754 C189.940,383.897 178.481,385.041 166.887,385.000 C40.327,384.553 0.456,305.550 0.000,238.031 C-0.488,165.828 31.455,105.497 87.376,60.444 C143.296,15.391 181.506,2.480 229.798,0.082 C254.284,-1.134 279.999,12.140 290.960,28.076 C305.232,48.824 298.707,70.879 316.299,77.940 C343.530,88.871 356.492,57.820 388.821,69.192 C414.677,78.288 434.731,112.353 419.991,171.000 C419.607,171.000 301.575,171.000 286.000,171.000 ZM47.188,239.781 C47.188,258.628 62.445,273.906 81.266,273.906 C100.086,273.906 115.344,258.628 115.344,239.781 C115.344,220.935 100.086,205.656 81.266,205.656 C62.445,205.656 47.188,220.935 47.188,239.781 ZM115.766,104.188 C96.703,104.188 81.250,119.655 81.250,138.734 C81.250,157.814 96.703,173.281 115.766,173.281 C134.828,173.281 150.281,157.814 150.281,138.734 C150.281,119.655 134.828,104.188 115.766,104.188 ZM297.000,284.000 C297.000,284.000 296.294,284.795 296.294,284.795 C300.092,279.195 302.312,272.436 302.312,265.156 C302.312,259.090 300.770,253.385 298.058,248.410 C298.058,248.410 300.000,251.000 300.000,251.000 C300.000,251.000 302.000,224.000 302.000,224.000 C302.000,224.000 361.000,225.000 361.000,225.000 C361.000,225.000 354.227,287.895 354.227,287.895 C336.308,307.602 314.947,326.821 291.154,342.889 C291.640,339.322 293.167,327.665 294.000,316.000 C294.959,302.572 297.000,284.000 297.000,284.000 Z" id="path-1" class="cls-2" fill-rule="evenodd"/>
</svg> -->

<svg xmlns="http://www.w3.org/2000/svg" preserveAspectRatio="xMidYMid" width="489" height="442">
  <path fill="#f8f7e5" d="M404 304c-2.459 56.625-6.464 90.756 31 94 39.132 3.389 41-34 41-34h13s-2.614 78.418-76 78c-33.516-.191-57.807-21.078-61-45-3.578-26.807 8-116 8-116l8-63h-71s-4.289 43.608-8 91c-1.026 13.095-2.85 26.204-5.027 38.513l.579-.289c-.196.125-.396.246-.593.371C279.074 375.196 272.416 398.751 269 409c-10.333 31-36.002 36.858-56 31-20.536-6.016-22.667-18-22-30 .304-5.478 9.374-16.069 20.718-30.566a198.093 198.093 0 0 1-6.363 1.477l6.473-1.618C225.314 362.05 241.98 339.301 251 313c8.238-24.02 12.937-63.097 14.901-82.807-.102.004-.206.003-.308.008l.312-.045C266.649 222.684 267 218 267 218s-26.659-3.419-50 3c-21.137 5.813-35.333 29-40 34-4.667 5-13 1-13 1s19.53-58.201 53-73c19.305-8.536 99-7 99-7l102.135.594 1.826-5.476a203.772 203.772 0 0 1-1.464 5.478L488 177v39l-77 1s-4.751 35.196-7 87zM286 171c-15.6 0-57.016-1.441-79 11-27.706 15.679-51 77-51 77s2.964 1.171 6.944 2.18c-16.566 2.535-29.256 16.858-29.256 34.148 0 19.08 15.453 34.547 34.515 34.547 19.063 0 34.516-15.467 34.516-34.547 0-15.861-10.683-29.216-25.237-33.274.914-.251 1.764-.593 2.518-1.054 5.356-3.274 12.489-20.439 33-31 17.873-9.203 46-5 46-5l.99 5.942c-15.764 3.389-27.584 17.417-27.584 34.214 0 12.718 6.775 23.849 16.907 29.978L249 295s-2.842 19.495-16 42c-11.659 19.942-29.73 42.222-31.799 44.754-11.261 2.143-22.72 3.287-34.314 3.246C40.327 384.553.456 305.55 0 238.031c-.488-72.203 31.455-132.534 87.376-177.587C143.296 15.391 181.506 2.48 229.798.082c24.486-1.216 50.201 12.058 61.162 27.994 14.272 20.748 7.747 42.803 25.339 49.864 27.231 10.931 40.193-20.12 72.522-8.748 25.856 9.096 45.91 43.161 31.17 101.808H286zM47.188 239.781c0 18.847 15.257 34.125 34.078 34.125 18.82 0 34.078-15.278 34.078-34.125 0-18.846-15.258-34.125-34.078-34.125-18.821 0-34.078 15.279-34.078 34.125zm68.578-135.593c-19.063 0-34.516 15.467-34.516 34.546 0 19.08 15.453 34.547 34.516 34.547 19.062 0 34.515-15.467 34.515-34.547 0-19.079-15.453-34.546-34.515-34.546zM297 284l-.706.795a34.868 34.868 0 0 0 6.018-19.639 34.88 34.88 0 0 0-4.254-16.746L300 251l2-27 59 1-6.773 62.895c-17.919 19.707-39.28 38.926-63.073 54.994.486-3.567 2.013-15.224 2.846-26.889.959-13.428 3-32 3-32z" fill-rule="evenodd"/>
</svg>
